<mxfile host="app.diagrams.net" modified="2020-12-05T01:34:45.887Z" agent="5.0 (Macintosh)" etag="WJbYfoDjkCktGeGmH-7S" version="13.10.6" type="github">
  <diagram id="MY9PlB7ft-bpY4L-uhnj" name="Page-1">
    <mxGraphModel dx="946" dy="651" grid="0" gridSize="10" guides="1" tooltips="1" connect="1" arrows="1" fold="1" page="1" pageScale="1" pageWidth="827" pageHeight="1169" background="#ffffff" math="0" shadow="0">
      <root>
        <mxCell id="0" />
        <mxCell id="1" parent="0" />
        <mxCell id="Iza76VuhR1Gx-UY5kcg5-1" value="" style="endArrow=classic;html=1;fillColor=#FF0000;strokeColor=#FF3333;rounded=0;strokeWidth=3;" parent="1" edge="1">
          <mxGeometry width="50" height="50" relative="1" as="geometry">
            <mxPoint x="100" y="150" as="sourcePoint" />
            <mxPoint x="160" y="100" as="targetPoint" />
            <Array as="points">
              <mxPoint x="100" y="100" />
            </Array>
          </mxGeometry>
        </mxCell>
        <mxCell id="Iza76VuhR1Gx-UY5kcg5-2" value="" style="endArrow=classic;html=1;fillColor=#FF0000;strokeColor=#FF3333;exitX=0.75;exitY=1;exitDx=0;exitDy=0;entryX=0;entryY=0.25;entryDx=0;entryDy=0;rounded=0;strokeWidth=3;" parent="1" target="Iza76VuhR1Gx-UY5kcg5-6" edge="1">
          <mxGeometry width="50" height="50" relative="1" as="geometry">
            <mxPoint x="100" y="200" as="sourcePoint" />
            <mxPoint x="414" y="340" as="targetPoint" />
            <Array as="points">
              <mxPoint x="100" y="250" />
            </Array>
          </mxGeometry>
        </mxCell>
        <mxCell id="Iza76VuhR1Gx-UY5kcg5-3" value="" style="edgeStyle=segmentEdgeStyle;endArrow=classic;html=1;strokeColor=#FF3333;fillColor=#FF0000;entryX=0.5;entryY=0;entryDx=0;entryDy=0;exitX=1;exitY=0.25;exitDx=0;exitDy=0;rounded=0;strokeWidth=3;" parent="1" source="Iza76VuhR1Gx-UY5kcg5-4" target="Iza76VuhR1Gx-UY5kcg5-8" edge="1">
          <mxGeometry width="50" height="50" relative="1" as="geometry">
            <mxPoint x="570" y="170" as="sourcePoint" />
            <mxPoint x="499.72" y="141" as="targetPoint" />
            <Array as="points" />
          </mxGeometry>
        </mxCell>
        <mxCell id="Iza76VuhR1Gx-UY5kcg5-4" value="1" style="swimlane;childLayout=stackLayout;horizontal=1;startSize=30;horizontalStack=0;rounded=1;fontSize=14;fontStyle=0;strokeWidth=2;resizeParent=0;resizeLast=1;shadow=0;dashed=0;align=center;" parent="1" vertex="1">
          <mxGeometry x="163" y="70" width="130" height="70" as="geometry">
            <mxRectangle x="20" y="370" width="40" height="30" as="alternateBounds" />
          </mxGeometry>
        </mxCell>
        <mxCell id="Iza76VuhR1Gx-UY5kcg5-5" value="Sign up with Hologram" style="text;html=1;align=center;verticalAlign=middle;resizable=0;points=[];autosize=1;" parent="Iza76VuhR1Gx-UY5kcg5-4" vertex="1">
          <mxGeometry y="30" width="130" height="40" as="geometry" />
        </mxCell>
        <mxCell id="Iza76VuhR1Gx-UY5kcg5-6" value="2" style="swimlane;childLayout=stackLayout;horizontal=1;startSize=30;horizontalStack=0;rounded=1;fontSize=14;fontStyle=0;strokeWidth=2;resizeParent=0;resizeLast=1;shadow=0;dashed=0;align=center;" parent="1" vertex="1">
          <mxGeometry x="180" y="230" width="113" height="80" as="geometry">
            <mxRectangle x="20" y="370" width="40" height="30" as="alternateBounds" />
          </mxGeometry>
        </mxCell>
        <mxCell id="Iza76VuhR1Gx-UY5kcg5-7" value="Sign-in to Hologram" style="text;html=1;align=center;verticalAlign=middle;resizable=0;points=[];autosize=1;" parent="Iza76VuhR1Gx-UY5kcg5-6" vertex="1">
          <mxGeometry y="30" width="113" height="50" as="geometry" />
        </mxCell>
        <mxCell id="Iza76VuhR1Gx-UY5kcg5-8" value="3" style="swimlane;childLayout=stackLayout;horizontal=1;startSize=30;horizontalStack=0;rounded=1;fontSize=14;fontStyle=0;strokeWidth=2;resizeParent=0;resizeLast=1;shadow=0;dashed=0;align=center;" parent="1" vertex="1">
          <mxGeometry x="330" y="150" width="174.5" height="80" as="geometry">
            <mxRectangle x="20" y="370" width="40" height="30" as="alternateBounds" />
          </mxGeometry>
        </mxCell>
        <mxCell id="Iza76VuhR1Gx-UY5kcg5-9" value="Search in Hologram Homepage" style="text;html=1;align=center;verticalAlign=middle;resizable=0;points=[];autosize=1;" parent="Iza76VuhR1Gx-UY5kcg5-8" vertex="1">
          <mxGeometry y="30" width="174.5" height="50" as="geometry" />
        </mxCell>
        <mxCell id="Iza76VuhR1Gx-UY5kcg5-10" value="4" style="swimlane;childLayout=stackLayout;horizontal=1;startSize=30;horizontalStack=0;rounded=1;fontSize=14;fontStyle=0;strokeWidth=2;resizeParent=0;resizeLast=1;shadow=0;dashed=0;align=center;" parent="1" vertex="1">
          <mxGeometry x="590" y="150" width="180" height="80" as="geometry">
            <mxRectangle x="20" y="370" width="40" height="30" as="alternateBounds" />
          </mxGeometry>
        </mxCell>
        <mxCell id="Iza76VuhR1Gx-UY5kcg5-11" value="Display TV/Movie shows details" style="text;html=1;align=center;verticalAlign=middle;resizable=0;points=[];autosize=1;" parent="Iza76VuhR1Gx-UY5kcg5-10" vertex="1">
          <mxGeometry y="30" width="180" height="50" as="geometry" />
        </mxCell>
        <mxCell id="Iza76VuhR1Gx-UY5kcg5-12" value="D2&amp;nbsp; &amp;nbsp; Hologram TV/Movie show DB" style="html=1;dashed=0;whitespace=wrap;shape=mxgraph.dfd.dataStoreID;align=left;spacingLeft=3;points=[[0,0],[0.5,0],[1,0],[0,0.5],[1,0.5],[0,1],[0.5,1],[1,1]];" parent="1" vertex="1">
          <mxGeometry x="487.5" y="40" width="102.5" height="30" as="geometry" />
        </mxCell>
        <mxCell id="Iza76VuhR1Gx-UY5kcg5-13" value="D1&amp;nbsp; &amp;nbsp; &amp;nbsp;Hologram User DB" style="html=1;dashed=0;whitespace=wrap;shape=mxgraph.dfd.dataStoreID;align=left;spacingLeft=3;points=[[0,0],[0.5,0],[1,0],[0,0.5],[1,0.5],[0,1],[0.5,1],[1,1]];" parent="1" vertex="1">
          <mxGeometry x="173" y="350" width="110" height="30" as="geometry" />
        </mxCell>
        <mxCell id="Iza76VuhR1Gx-UY5kcg5-14" value="5" style="swimlane;childLayout=stackLayout;horizontal=1;startSize=30;horizontalStack=0;rounded=1;fontSize=14;fontStyle=0;strokeWidth=2;resizeParent=0;resizeLast=1;shadow=0;dashed=0;align=center;" parent="1" vertex="1">
          <mxGeometry x="590" y="280" width="185" height="80" as="geometry">
            <mxRectangle x="20" y="370" width="40" height="30" as="alternateBounds" />
          </mxGeometry>
        </mxCell>
        <mxCell id="Iza76VuhR1Gx-UY5kcg5-15" value="Subscribe to streaming services" style="text;html=1;align=center;verticalAlign=middle;resizable=0;points=[];autosize=1;" parent="Iza76VuhR1Gx-UY5kcg5-14" vertex="1">
          <mxGeometry y="30" width="185" height="50" as="geometry" />
        </mxCell>
        <mxCell id="Iza76VuhR1Gx-UY5kcg5-16" value="6" style="swimlane;childLayout=stackLayout;horizontal=1;startSize=30;horizontalStack=0;rounded=1;fontSize=14;fontStyle=0;strokeWidth=2;resizeParent=0;resizeLast=1;shadow=0;dashed=0;align=center;" parent="1" vertex="1">
          <mxGeometry x="592.5" y="410" width="180" height="80" as="geometry">
            <mxRectangle x="20" y="370" width="40" height="30" as="alternateBounds" />
          </mxGeometry>
        </mxCell>
        <mxCell id="Iza76VuhR1Gx-UY5kcg5-17" value="Payment through Hologram" style="text;html=1;align=center;verticalAlign=middle;resizable=0;points=[];autosize=1;" parent="Iza76VuhR1Gx-UY5kcg5-16" vertex="1">
          <mxGeometry y="30" width="180" height="50" as="geometry" />
        </mxCell>
        <mxCell id="Iza76VuhR1Gx-UY5kcg5-18" value="7" style="swimlane;childLayout=stackLayout;horizontal=1;startSize=30;horizontalStack=0;rounded=1;fontSize=14;fontStyle=0;strokeWidth=2;resizeParent=0;resizeLast=1;shadow=0;dashed=0;align=center;" parent="1" vertex="1">
          <mxGeometry x="595" y="545" width="175" height="85" as="geometry">
            <mxRectangle x="20" y="370" width="40" height="30" as="alternateBounds" />
          </mxGeometry>
        </mxCell>
        <mxCell id="StVCQytyxGDM6ouXBsY7-21" value="" style="edgeStyle=segmentEdgeStyle;endArrow=classic;html=1;strokeColor=#FF3333;fillColor=#FF0000;rounded=0;strokeWidth=3;" parent="Iza76VuhR1Gx-UY5kcg5-18" edge="1">
          <mxGeometry width="50" height="50" relative="1" as="geometry">
            <mxPoint x="177.5" y="25" as="sourcePoint" />
            <mxPoint x="292" y="-59" as="targetPoint" />
            <Array as="points">
              <mxPoint x="177.5" y="52" />
            </Array>
          </mxGeometry>
        </mxCell>
        <mxCell id="StVCQytyxGDM6ouXBsY7-22" value="Cancel Request" style="edgeLabel;html=1;align=center;verticalAlign=middle;resizable=0;points=[];" parent="StVCQytyxGDM6ouXBsY7-21" vertex="1" connectable="0">
          <mxGeometry x="-0.4099" y="4" relative="1" as="geometry">
            <mxPoint x="2.5" y="-8" as="offset" />
          </mxGeometry>
        </mxCell>
        <mxCell id="Iza76VuhR1Gx-UY5kcg5-19" value="Manage Subscription" style="text;html=1;align=center;verticalAlign=middle;resizable=0;points=[];autosize=1;" parent="Iza76VuhR1Gx-UY5kcg5-18" vertex="1">
          <mxGeometry y="30" width="175" height="55" as="geometry" />
        </mxCell>
        <mxCell id="Iza76VuhR1Gx-UY5kcg5-20" value="8" style="swimlane;childLayout=stackLayout;horizontal=1;startSize=30;horizontalStack=0;rounded=1;fontSize=14;fontStyle=0;strokeWidth=2;resizeParent=0;resizeLast=1;shadow=0;dashed=0;align=center;" parent="1" vertex="1">
          <mxGeometry x="327.25" y="550" width="180" height="80" as="geometry">
            <mxRectangle x="20" y="370" width="40" height="30" as="alternateBounds" />
          </mxGeometry>
        </mxCell>
        <mxCell id="Iza76VuhR1Gx-UY5kcg5-21" value="Settlement with Merchant" style="text;html=1;align=center;verticalAlign=middle;resizable=0;points=[];autosize=1;" parent="Iza76VuhR1Gx-UY5kcg5-20" vertex="1">
          <mxGeometry y="30" width="180" height="50" as="geometry" />
        </mxCell>
        <mxCell id="Iza76VuhR1Gx-UY5kcg5-22" value="D1&amp;nbsp; &amp;nbsp; &amp;nbsp;Hologram User DB" style="html=1;dashed=0;whitespace=wrap;shape=mxgraph.dfd.dataStoreID;align=left;spacingLeft=3;points=[[0,0],[0.5,0],[1,0],[0,0.5],[1,0.5],[0,1],[0.5,1],[1,1]];" parent="1" vertex="1">
          <mxGeometry x="173" y="10" width="110" height="30" as="geometry" />
        </mxCell>
        <mxCell id="Iza76VuhR1Gx-UY5kcg5-23" value="" style="endArrow=classic;html=1;fillColor=#FF0000;strokeColor=#FF3333;entryX=0.5;entryY=1;entryDx=0;entryDy=0;exitX=0.5;exitY=0;exitDx=0;exitDy=0;rounded=0;strokeWidth=3;" parent="1" source="Iza76VuhR1Gx-UY5kcg5-4" target="Iza76VuhR1Gx-UY5kcg5-22" edge="1">
          <mxGeometry width="50" height="50" relative="1" as="geometry">
            <mxPoint x="218" y="67" as="sourcePoint" />
            <mxPoint x="250" y="58" as="targetPoint" />
          </mxGeometry>
        </mxCell>
        <mxCell id="Iza76VuhR1Gx-UY5kcg5-24" value="" style="edgeStyle=segmentEdgeStyle;endArrow=classic;html=1;strokeColor=#FF3333;fillColor=#FF0000;entryX=0.539;entryY=1.08;entryDx=0;entryDy=0;entryPerimeter=0;exitX=0.991;exitY=0.4;exitDx=0;exitDy=0;exitPerimeter=0;rounded=0;strokeWidth=3;" parent="1" source="Iza76VuhR1Gx-UY5kcg5-7" target="Iza76VuhR1Gx-UY5kcg5-9" edge="1">
          <mxGeometry width="50" height="50" relative="1" as="geometry">
            <mxPoint x="293" y="277" as="sourcePoint" />
            <mxPoint x="488" y="217" as="targetPoint" />
            <Array as="points">
              <mxPoint x="293" y="280" />
              <mxPoint x="293" y="285" />
              <mxPoint x="424" y="285" />
            </Array>
          </mxGeometry>
        </mxCell>
        <mxCell id="Iza76VuhR1Gx-UY5kcg5-25" value="" style="endArrow=classic;html=1;fillColor=#FF0000;strokeColor=#FF3333;exitX=0.5;exitY=0;exitDx=0;exitDy=0;entryX=0.416;entryY=1;entryDx=0;entryDy=0;entryPerimeter=0;rounded=0;strokeWidth=3;" parent="1" source="Iza76VuhR1Gx-UY5kcg5-13" target="Iza76VuhR1Gx-UY5kcg5-7" edge="1">
          <mxGeometry width="50" height="50" relative="1" as="geometry">
            <mxPoint x="110" y="210" as="sourcePoint" />
            <mxPoint x="230" y="313" as="targetPoint" />
            <Array as="points" />
          </mxGeometry>
        </mxCell>
        <mxCell id="Iza76VuhR1Gx-UY5kcg5-26" value="" style="endArrow=classic;html=1;fillColor=#FF0000;strokeColor=#FF3333;entryX=0.802;entryY=0.013;entryDx=0;entryDy=0;entryPerimeter=0;rounded=0;strokeWidth=3;" parent="1" target="Iza76VuhR1Gx-UY5kcg5-8" edge="1">
          <mxGeometry width="50" height="50" relative="1" as="geometry">
            <mxPoint x="512" y="73" as="sourcePoint" />
            <mxPoint x="475" y="145" as="targetPoint" />
            <Array as="points">
              <mxPoint x="512" y="99" />
              <mxPoint x="470" y="99" />
            </Array>
          </mxGeometry>
        </mxCell>
        <mxCell id="Iza76VuhR1Gx-UY5kcg5-27" value="" style="edgeStyle=segmentEdgeStyle;endArrow=classic;html=1;strokeColor=#FF3333;fillColor=#FF0000;rounded=0;strokeWidth=3;" parent="1" source="Iza76VuhR1Gx-UY5kcg5-9" edge="1">
          <mxGeometry width="50" height="50" relative="1" as="geometry">
            <mxPoint x="520" y="210" as="sourcePoint" />
            <mxPoint x="590" y="205" as="targetPoint" />
            <Array as="points" />
          </mxGeometry>
        </mxCell>
        <mxCell id="Iza76VuhR1Gx-UY5kcg5-28" value="" style="edgeStyle=segmentEdgeStyle;endArrow=classic;html=1;strokeColor=#FF3333;fillColor=#FF0000;exitX=0.511;exitY=0.98;exitDx=0;exitDy=0;exitPerimeter=0;rounded=0;strokeWidth=3;" parent="1" source="Iza76VuhR1Gx-UY5kcg5-11" edge="1">
          <mxGeometry width="50" height="50" relative="1" as="geometry">
            <mxPoint x="683" y="240" as="sourcePoint" />
            <mxPoint x="683" y="280" as="targetPoint" />
            <Array as="points">
              <mxPoint x="683" y="229" />
            </Array>
          </mxGeometry>
        </mxCell>
        <mxCell id="Iza76VuhR1Gx-UY5kcg5-29" value="" style="edgeStyle=segmentEdgeStyle;endArrow=classic;html=1;strokeColor=#FF3333;fillColor=#FF0000;entryX=0.5;entryY=0;entryDx=0;entryDy=0;rounded=0;strokeWidth=3;" parent="1" target="Iza76VuhR1Gx-UY5kcg5-16" edge="1">
          <mxGeometry width="50" height="50" relative="1" as="geometry">
            <mxPoint x="683" y="360" as="sourcePoint" />
            <mxPoint x="693" y="380" as="targetPoint" />
            <Array as="points">
              <mxPoint x="683" y="383" />
            </Array>
          </mxGeometry>
        </mxCell>
        <mxCell id="Iza76VuhR1Gx-UY5kcg5-30" value="" style="edgeStyle=segmentEdgeStyle;endArrow=classic;html=1;strokeColor=#FF3333;fillColor=#FF0000;entryX=0.5;entryY=0;entryDx=0;entryDy=0;rounded=0;strokeWidth=3;" parent="1" edge="1">
          <mxGeometry width="50" height="50" relative="1" as="geometry">
            <mxPoint x="680" y="491" as="sourcePoint" />
            <mxPoint x="679.5" y="545" as="targetPoint" />
            <Array as="points">
              <mxPoint x="680" y="518" />
            </Array>
          </mxGeometry>
        </mxCell>
        <mxCell id="Iza76VuhR1Gx-UY5kcg5-31" value="" style="edgeStyle=segmentEdgeStyle;endArrow=classic;html=1;strokeColor=#FF3333;fillColor=#FF0000;exitX=0;exitY=0.75;exitDx=0;exitDy=0;entryX=0.626;entryY=-0.05;entryDx=0;entryDy=0;entryPerimeter=0;rounded=0;strokeWidth=3;" parent="1" source="Iza76VuhR1Gx-UY5kcg5-16" target="Iza76VuhR1Gx-UY5kcg5-20" edge="1">
          <mxGeometry width="50" height="50" relative="1" as="geometry">
            <mxPoint x="561" y="480" as="sourcePoint" />
            <mxPoint x="440" y="540" as="targetPoint" />
            <Array as="points">
              <mxPoint x="593" y="480" />
              <mxPoint x="440" y="480" />
            </Array>
          </mxGeometry>
        </mxCell>
        <mxCell id="Iza76VuhR1Gx-UY5kcg5-32" value="" style="endArrow=classic;html=1;fillColor=#FF0000;strokeColor=#FF3333;exitX=0.909;exitY=1.067;exitDx=0;exitDy=0;exitPerimeter=0;entryX=0.167;entryY=0;entryDx=0;entryDy=0;entryPerimeter=0;rounded=0;strokeWidth=3;" parent="1" source="Iza76VuhR1Gx-UY5kcg5-12" target="Iza76VuhR1Gx-UY5kcg5-10" edge="1">
          <mxGeometry width="50" height="50" relative="1" as="geometry">
            <mxPoint x="480" y="113" as="sourcePoint" />
            <mxPoint x="630" y="102" as="targetPoint" />
            <Array as="points">
              <mxPoint x="581" y="99" />
              <mxPoint x="620" y="99" />
            </Array>
          </mxGeometry>
        </mxCell>
        <mxCell id="Iza76VuhR1Gx-UY5kcg5-33" value="" style="edgeStyle=segmentEdgeStyle;endArrow=classic;html=1;strokeColor=#FF3333;fillColor=#FF0000;rounded=0;strokeWidth=3;" parent="1" target="Iza76VuhR1Gx-UY5kcg5-15" edge="1">
          <mxGeometry width="50" height="50" relative="1" as="geometry">
            <mxPoint x="810" y="317" as="sourcePoint" />
            <mxPoint x="778" y="339" as="targetPoint" />
            <Array as="points">
              <mxPoint x="854" y="317" />
              <mxPoint x="854" y="317" />
            </Array>
          </mxGeometry>
        </mxCell>
        <mxCell id="Iza76VuhR1Gx-UY5kcg5-34" value="D3&amp;nbsp; &amp;nbsp; &amp;nbsp;User Payment Details" style="html=1;dashed=0;whitespace=wrap;shape=mxgraph.dfd.dataStoreID;align=left;spacingLeft=3;points=[[0,0],[0.5,0],[1,0],[0,0.5],[1,0.5],[0,1],[0.5,1],[1,1]];" parent="1" vertex="1">
          <mxGeometry x="308.5" y="420" width="106" height="30" as="geometry" />
        </mxCell>
        <mxCell id="Iza76VuhR1Gx-UY5kcg5-35" value="" style="edgeStyle=segmentEdgeStyle;endArrow=classic;html=1;strokeColor=#FF3333;fillColor=#FF0000;rounded=0;strokeWidth=3;" parent="1" edge="1">
          <mxGeometry width="50" height="50" relative="1" as="geometry">
            <mxPoint x="399.5" y="415" as="sourcePoint" />
            <mxPoint x="627.5" y="410" as="targetPoint" />
            <Array as="points">
              <mxPoint x="399.5" y="375" />
              <mxPoint x="627.5" y="375" />
            </Array>
          </mxGeometry>
        </mxCell>
        <mxCell id="Iza76VuhR1Gx-UY5kcg5-36" value="" style="edgeStyle=segmentEdgeStyle;endArrow=classic;html=1;strokeColor=#FF3333;fillColor=#FF0000;rounded=0;strokeWidth=3;" parent="1" target="Iza76VuhR1Gx-UY5kcg5-34" edge="1">
          <mxGeometry width="50" height="50" relative="1" as="geometry">
            <mxPoint x="590" y="460" as="sourcePoint" />
            <mxPoint x="490" y="460" as="targetPoint" />
            <Array as="points">
              <mxPoint x="590" y="470" />
              <mxPoint x="490" y="470" />
              <mxPoint x="490" y="450" />
            </Array>
          </mxGeometry>
        </mxCell>
        <mxCell id="Iza76VuhR1Gx-UY5kcg5-39" value="&lt;span style=&quot;color: rgba(0 , 0 , 0 , 0) ; font-family: monospace ; font-size: 0px&quot;&gt;%3CmxGraphModel%3E%3Croot%3E%3CmxCell%20id%3D%220%22%2F%3E%3CmxCell%20id%3D%221%22%20parent%3D%220%22%2F%3E%3CmxCell%20id%3D%222%22%20value%3D%22Login%20Credential%22%20style%3D%22text%3Bhtml%3D1%3Balign%3Dcenter%3BverticalAlign%3Dmiddle%3Bresizable%3D0%3Bpoints%3D%5B%5D%3Bautosize%3D1%3B%22%20vertex%3D%221%22%20parent%3D%221%22%3E%3CmxGeometry%20x%3D%22360%22%20y%3D%2260%22%20width%3D%22100%22%20height%3D%2220%22%20as%3D%22geometry%22%2F%3E%3C%2FmxCell%3E%3C%2Froot%3E%3C%2FmxGraphModel%3E&lt;/span&gt;" style="text;html=1;resizable=0;autosize=1;align=center;verticalAlign=middle;points=[];fillColor=none;strokeColor=none;rounded=0;" parent="1" vertex="1">
          <mxGeometry x="400" y="310" width="20" height="20" as="geometry" />
        </mxCell>
        <mxCell id="Iza76VuhR1Gx-UY5kcg5-40" value="New user" style="text;html=1;align=center;verticalAlign=middle;resizable=0;points=[];autosize=1;" parent="1" vertex="1">
          <mxGeometry x="85" y="74" width="70" height="20" as="geometry" />
        </mxCell>
        <mxCell id="Iza76VuhR1Gx-UY5kcg5-41" value="Existing User" style="text;html=1;align=center;verticalAlign=middle;resizable=0;points=[];autosize=1;" parent="1" vertex="1">
          <mxGeometry x="77" y="257" width="90" height="20" as="geometry" />
        </mxCell>
        <mxCell id="Iza76VuhR1Gx-UY5kcg5-42" value="Login Credentials" style="text;html=1;align=center;verticalAlign=middle;resizable=0;points=[];autosize=1;" parent="1" vertex="1">
          <mxGeometry x="306" y="64" width="103" height="18" as="geometry" />
        </mxCell>
        <mxCell id="Iza76VuhR1Gx-UY5kcg5-43" value="Login Credentials" style="text;html=1;align=center;verticalAlign=middle;resizable=0;points=[];autosize=1;" parent="1" vertex="1">
          <mxGeometry x="310" y="291" width="103" height="18" as="geometry" />
        </mxCell>
        <mxCell id="Iza76VuhR1Gx-UY5kcg5-44" value="Movie/TV Show detail" style="text;html=1;align=center;verticalAlign=middle;resizable=0;points=[];autosize=1;" parent="1" vertex="1">
          <mxGeometry x="483" y="232" width="126" height="18" as="geometry" />
        </mxCell>
        <mxCell id="Iza76VuhR1Gx-UY5kcg5-45" value="Subscription Page" style="text;html=1;align=center;verticalAlign=middle;resizable=0;points=[];autosize=1;" parent="1" vertex="1">
          <mxGeometry x="697" y="246" width="107" height="18" as="geometry" />
        </mxCell>
        <mxCell id="Iza76VuhR1Gx-UY5kcg5-47" value="&lt;div&gt;Subscription ID&lt;/div&gt;&lt;div&gt;Order ID&lt;/div&gt;&lt;div&gt;Amount&lt;br&gt;&lt;/div&gt;" style="text;html=1;align=center;verticalAlign=middle;resizable=0;points=[];autosize=1;" parent="1" vertex="1">
          <mxGeometry x="688" y="364" width="91" height="46" as="geometry" />
        </mxCell>
        <mxCell id="Iza76VuhR1Gx-UY5kcg5-49" value="Subscription active" style="text;html=1;align=center;verticalAlign=middle;resizable=0;points=[];autosize=1;" parent="1" vertex="1">
          <mxGeometry x="680" y="511" width="111" height="18" as="geometry" />
        </mxCell>
        <mxCell id="Iza76VuhR1Gx-UY5kcg5-50" value="Payment success" style="text;html=1;align=center;verticalAlign=middle;resizable=0;points=[];autosize=1;" parent="1" vertex="1">
          <mxGeometry x="450" y="510" width="110" height="20" as="geometry" />
        </mxCell>
        <mxCell id="Iza76VuhR1Gx-UY5kcg5-51" value="Amount" style="text;html=1;align=center;verticalAlign=middle;resizable=0;points=[];autosize=1;" parent="1" vertex="1">
          <mxGeometry x="259" y="593" width="51" height="18" as="geometry" />
        </mxCell>
        <mxCell id="StVCQytyxGDM6ouXBsY7-1" value="&lt;b&gt;User/Custome&lt;/b&gt;r" style="shape=ext;double=1;whiteSpace=wrap;html=1;aspect=fixed;" parent="1" vertex="1">
          <mxGeometry x="57" y="132" width="91" height="91" as="geometry" />
        </mxCell>
        <mxCell id="StVCQytyxGDM6ouXBsY7-3" value="Movies/TV Shows" style="text;html=1;align=center;verticalAlign=middle;resizable=0;points=[];autosize=1;" parent="1" vertex="1">
          <mxGeometry x="469" y="106" width="106" height="18" as="geometry" />
        </mxCell>
        <mxCell id="StVCQytyxGDM6ouXBsY7-4" value="Movies/TV Shows" style="text;html=1;align=center;verticalAlign=middle;resizable=0;points=[];autosize=1;" parent="1" vertex="1">
          <mxGeometry x="622" y="102" width="106" height="18" as="geometry" />
        </mxCell>
        <mxCell id="StVCQytyxGDM6ouXBsY7-5" value="&lt;b&gt;&lt;span&gt;&amp;nbsp;OTT Platforms&lt;/span&gt;&lt;/b&gt;" style="shape=ext;double=1;whiteSpace=wrap;html=1;aspect=fixed;" parent="1" vertex="1">
          <mxGeometry x="855" y="257" width="95" height="95" as="geometry" />
        </mxCell>
        <mxCell id="StVCQytyxGDM6ouXBsY7-6" value="&lt;b&gt;User/Custome&lt;/b&gt;r &lt;b&gt;Bank&lt;/b&gt;" style="shape=ext;double=1;whiteSpace=wrap;html=1;aspect=fixed;" parent="1" vertex="1">
          <mxGeometry x="860" y="385" width="98" height="98" as="geometry" />
        </mxCell>
        <mxCell id="StVCQytyxGDM6ouXBsY7-8" value="&lt;b&gt;OTT Banks&lt;/b&gt;" style="shape=ext;double=1;whiteSpace=wrap;html=1;aspect=fixed;" parent="1" vertex="1">
          <mxGeometry x="157" y="547" width="91" height="91" as="geometry" />
        </mxCell>
        <mxCell id="StVCQytyxGDM6ouXBsY7-9" value="" style="edgeStyle=segmentEdgeStyle;endArrow=classic;html=1;strokeColor=#FF3333;fillColor=#FF0000;rounded=0;strokeWidth=3;entryX=0.705;entryY=1.1;entryDx=0;entryDy=0;entryPerimeter=0;" parent="1" target="Iza76VuhR1Gx-UY5kcg5-9" edge="1">
          <mxGeometry width="50" height="50" relative="1" as="geometry">
            <mxPoint x="616" y="235" as="sourcePoint" />
            <mxPoint x="600" y="215" as="targetPoint" />
            <Array as="points">
              <mxPoint x="616" y="274" />
              <mxPoint x="453" y="274" />
            </Array>
          </mxGeometry>
        </mxCell>
        <mxCell id="StVCQytyxGDM6ouXBsY7-10" value="Back Button to search Page" style="text;html=1;align=center;verticalAlign=middle;resizable=0;points=[];autosize=1;" parent="1" vertex="1">
          <mxGeometry x="431" y="280" width="159" height="18" as="geometry" />
        </mxCell>
        <mxCell id="StVCQytyxGDM6ouXBsY7-11" value="&lt;div&gt;Subscription &lt;br&gt;&lt;/div&gt;&lt;div&gt;Plans&lt;/div&gt;" style="text;html=1;align=center;verticalAlign=middle;resizable=0;points=[];autosize=1;" parent="1" vertex="1">
          <mxGeometry x="779" y="286" width="76" height="32" as="geometry" />
        </mxCell>
        <mxCell id="StVCQytyxGDM6ouXBsY7-13" value="" style="edgeStyle=segmentEdgeStyle;endArrow=classic;html=1;strokeColor=#FF3333;fillColor=#FF0000;rounded=0;strokeWidth=3;" parent="1" edge="1">
          <mxGeometry width="50" height="50" relative="1" as="geometry">
            <mxPoint x="810" y="425" as="sourcePoint" />
            <mxPoint x="775" y="425" as="targetPoint" />
            <Array as="points">
              <mxPoint x="854" y="425" />
              <mxPoint x="854" y="425" />
            </Array>
          </mxGeometry>
        </mxCell>
        <mxCell id="StVCQytyxGDM6ouXBsY7-15" value="Payment Status" style="text;html=1;align=center;verticalAlign=middle;resizable=0;points=[];autosize=1;" parent="1" vertex="1">
          <mxGeometry x="770" y="404" width="95" height="18" as="geometry" />
        </mxCell>
        <mxCell id="StVCQytyxGDM6ouXBsY7-16" value="User Card details" style="text;html=1;align=center;verticalAlign=middle;resizable=0;points=[];autosize=1;" parent="1" vertex="1">
          <mxGeometry x="489.5" y="450" width="103" height="18" as="geometry" />
        </mxCell>
        <mxCell id="StVCQytyxGDM6ouXBsY7-17" value="Subscription ID" style="text;html=1;align=center;verticalAlign=middle;resizable=0;points=[];autosize=1;" parent="1" vertex="1">
          <mxGeometry x="504" y="360" width="91" height="18" as="geometry" />
        </mxCell>
        <mxCell id="StVCQytyxGDM6ouXBsY7-20" value="" style="edgeStyle=segmentEdgeStyle;endArrow=classic;html=1;strokeColor=#FF3333;fillColor=#FF0000;rounded=0;strokeWidth=3;" parent="1" edge="1">
          <mxGeometry width="50" height="50" relative="1" as="geometry">
            <mxPoint x="277.25" y="584" as="sourcePoint" />
            <mxPoint x="242.25" y="584" as="targetPoint" />
            <Array as="points">
              <mxPoint x="321.25" y="584" />
              <mxPoint x="321.25" y="584" />
            </Array>
          </mxGeometry>
        </mxCell>
        <mxCell id="StVCQytyxGDM6ouXBsY7-23" value="" style="edgeStyle=segmentEdgeStyle;endArrow=classic;html=1;strokeColor=#FF3333;fillColor=#FF0000;rounded=0;strokeWidth=3;entryX=1.029;entryY=0.873;entryDx=0;entryDy=0;entryPerimeter=0;" parent="1" target="Iza76VuhR1Gx-UY5kcg5-19" edge="1">
          <mxGeometry width="50" height="50" relative="1" as="geometry">
            <mxPoint x="920" y="483" as="sourcePoint" />
            <mxPoint x="791" y="622" as="targetPoint" />
            <Array as="points">
              <mxPoint x="920" y="622" />
            </Array>
          </mxGeometry>
        </mxCell>
        <mxCell id="StVCQytyxGDM6ouXBsY7-25" value="Cancel and respond" style="text;html=1;align=center;verticalAlign=middle;resizable=0;points=[];autosize=1;" parent="1" vertex="1">
          <mxGeometry x="794" y="627" width="117" height="18" as="geometry" />
        </mxCell>
        <mxCell id="StVCQytyxGDM6ouXBsY7-26" value="&lt;b&gt;&lt;span&gt;&amp;nbsp;OTT Platforms&lt;/span&gt;&lt;/b&gt;" style="shape=ext;double=1;whiteSpace=wrap;html=1;aspect=fixed;" parent="1" vertex="1">
          <mxGeometry x="627.5" y="705" width="95" height="95" as="geometry" />
        </mxCell>
        <mxCell id="StVCQytyxGDM6ouXBsY7-27" value="" style="edgeStyle=segmentEdgeStyle;endArrow=classic;html=1;strokeColor=#FF3333;fillColor=#FF0000;rounded=0;strokeWidth=3;" parent="1" edge="1">
          <mxGeometry width="50" height="50" relative="1" as="geometry">
            <mxPoint x="675" y="630" as="sourcePoint" />
            <mxPoint x="675" y="703" as="targetPoint" />
            <Array as="points">
              <mxPoint x="675" y="657" />
            </Array>
          </mxGeometry>
        </mxCell>
        <mxCell id="StVCQytyxGDM6ouXBsY7-29" value="&lt;div&gt;Cancel and respond&lt;/div&gt;&lt;div&gt;for status update&lt;br&gt;&lt;/div&gt;" style="text;html=1;align=center;verticalAlign=middle;resizable=0;points=[];autosize=1;" parent="1" vertex="1">
          <mxGeometry x="675" y="652" width="117" height="32" as="geometry" />
        </mxCell>
        <mxCell id="OlU4qFSOUU2mn6T0AKyO-3" value="" style="endArrow=classic;html=1;exitX=0.003;exitY=0.163;exitDx=0;exitDy=0;exitPerimeter=0;rounded=0;strokeWidth=3;strokeColor=#FF3333;" edge="1" parent="1" source="Iza76VuhR1Gx-UY5kcg5-16">
          <mxGeometry width="50" height="50" relative="1" as="geometry">
            <mxPoint x="593.04" y="423.03999999999996" as="sourcePoint" />
            <mxPoint x="459" y="423" as="targetPoint" />
          </mxGeometry>
        </mxCell>
        <mxCell id="OlU4qFSOUU2mn6T0AKyO-4" value="Paypal Email ID" style="text;html=1;align=center;verticalAlign=middle;resizable=0;points=[];autosize=1;" vertex="1" parent="1">
          <mxGeometry x="480" y="402" width="95" height="18" as="geometry" />
        </mxCell>
      </root>
    </mxGraphModel>
  </diagram>
</mxfile>
